<svg id="Layer_1" data-name="Layer 1" xmlns="http://www.w3.org/2000/svg" viewBox="0 0 2560 1600"><defs><style>.cls-1{fill:#972e3f;}.cls-2{fill:#872a3c;}.cls-3{fill:#a3344f;}.cls-4{fill:#284c59;}.cls-5{fill:#437489;}.cls-6{fill:#396372;}.cls-7{fill:#375e70;}.cls-8{fill:#4d8daf;}.cls-9{fill:#3b7893;}.cls-10{fill:#ef4136;}.cls-11{fill:#c92723;}.cls-12{fill:#ba2020;}.cls-13{fill:#dd3631;}.cls-14{fill:#6d6e71;}.cls-15{fill:#808285;}.cls-16{fill:#ea2646;}.cls-17{fill:#e6e7e8;}.cls-18{fill:#bbb;}.cls-19{fill:#a7a9ac;}.cls-20{fill:#939598;}.cls-21{fill:#f1c232;}.cls-22{fill:#e4b42b;}.cls-23{fill:#f1b037;}.cls-24{fill:#333;}.cls-25{fill:#262626;}.cls-26{fill:#ecddbb;}.cls-27{fill:#fceec8;}.cls-28{fill:#6f7171;}.cls-29{fill:#959595;}.cls-30{fill:#f1e64f;}.cls-31{fill:#b4ada7;}.cls-32{fill:#9f9b97;}.cls-33{fill:#734f47;}.cls-34{fill:#2d2d2d;}.cls-35{fill:#928d89;}.cls-36{fill:#e5a131;}.cls-37{fill:#f1f1f2;}.cls-38{fill:#2b3236;}.cls-39{fill:#d1d3d4;}.cls-40{fill:#bbbdbf;}.cls-41{fill:#a6a8ab;}.cls-42{fill:#dbdbdd;}.cls-43{fill:#ccc;}.cls-44{fill:#bcbbbb;}.cls-45{fill:#f2c436;}.cls-46{fill:#232725;}.cls-47{fill:#f2b137;}.cls-48{fill:#f2c341;}.cls-49{fill:#e2b544;}.cls-50{fill:#f2f2f2;}.cls-51{fill:#d89828;}.cls-52{fill:#be752a;}.cls-53{fill:#d8d8d8;}.cls-54{fill:#b5b1b1;}.cls-55{fill:#bc7d19;}</style></defs><title>Untitled-1</title><rect class="cls-1" width="2560" height="1600"/><polygon class="cls-2" points="443.48 834.93 443.48 170.07 612.21 170.07 612.21 537.49 650.26 537.49 650.26 256.1 691.62 219.64 827.26 219.64 827.26 412.1 1068.79 412.1 1068.79 805.41 1134.96 805.41 1134.96 482.09 1247.45 482.09 1247.45 534.58 1502.2 534.58 1502.2 636.26 1541.91 636.26 1541.91 536.04 1642.82 536.04 1747.04 627.89 1747.04 805.41 1780.12 805.41 1780.12 452.93 1929 452.93 1929 744.53 1960.43 744.53 1960.43 754.74 2091.12 639.56 2116.52 639.56 2116.52 1383.15 443.48 1383.15 443.48 834.93"/><rect class="cls-3" x="1136.71" y="323.52" width="207.65" height="48.75" rx="24.37" ry="24.37"/><path class="cls-3" d="M1381.66,323.52h0a24.37,24.37,0,0,0-24.37,24.37h0a24.37,24.37,0,0,0,24.37,24.37h0A24.37,24.37,0,0,0,1406,347.89h0A24.37,24.37,0,0,0,1381.66,323.52Z"/><rect class="cls-3" x="754.09" y="663.3" width="207.65" height="48.75" rx="24.37" ry="24.37"/><path class="cls-3" d="M716.78,712.05h0a24.37,24.37,0,0,0,24.37-24.37h0a24.37,24.37,0,0,0-24.37-24.37h0a24.37,24.37,0,0,0-24.37,24.37h0A24.37,24.37,0,0,0,716.78,712.05Z"/><path class="cls-3" d="M2254,556H1981.42A24.37,24.37,0,0,0,1957,580.42h0a24.37,24.37,0,0,0,24.37,24.37h69.77a24.37,24.37,0,0,1,24.37,24.37h0a24.37,24.37,0,0,1-24.37,24.37h-23.3a24.37,24.37,0,0,0-24.37,24.37h0a24.37,24.37,0,0,0,24.37,24.37h164.44a24.37,24.37,0,0,0,24.37-24.37h0a24.37,24.37,0,0,0-24.37-24.37h-31.45a24.37,24.37,0,0,1-24.37-24.37h0a24.37,24.37,0,0,1,24.37-24.37H2254a24.37,24.37,0,0,0,24.37-24.37h0A24.37,24.37,0,0,0,2254,556Z"/><rect class="cls-3" x="2229.64" y="653.55" width="48.75" height="48.75" rx="24.37" ry="24.37"/><path class="cls-3" d="M545.09,848.94H434.48a24.37,24.37,0,0,1-24.37-24.37h0a24.37,24.37,0,0,1,24.37-24.37h32.86a24.37,24.37,0,0,0,24.37-24.37h0a24.37,24.37,0,0,0-24.37-24.37H194.75a24.37,24.37,0,0,0-24.37,24.37h0a24.37,24.37,0,0,0,24.37,24.37h130a24.37,24.37,0,0,1,24.37,24.37h0a24.37,24.37,0,0,1-24.37,24.37H293.34A24.37,24.37,0,0,0,269,873.32h0a24.37,24.37,0,0,0,24.37,24.37H545.09a24.37,24.37,0,0,0,24.37-24.37h0A24.37,24.37,0,0,0,545.09,848.94Z"/><rect class="cls-3" x="206.98" y="848.64" width="48.75" height="48.75" rx="24.37" ry="24.37"/><polygon class="cls-4" points="1942.42 1382.93 1988.91 969.74 1999.61 969.74 1953.12 1382.93 1942.42 1382.93"/><polygon class="cls-4" points="1852.43 1382.93 1898.93 969.74 1909.62 969.74 1863.13 1382.93 1852.43 1382.93"/><polygon class="cls-5" points="1945.97 1351.41 1944.85 1361.37 1865.55 1361.37 1866.67 1351.41 1945.97 1351.41"/><polygon class="cls-6" points="1940.49 1361.37 1944.85 1361.37 1945.97 1351.41 1941.61 1351.41 1940.49 1361.37"/><polygon class="cls-6" points="1865.55 1361.37 1869.91 1361.37 1871.03 1351.41 1866.67 1351.41 1865.55 1361.37"/><polygon class="cls-5" points="1951.69 1300.56 1950.57 1310.51 1871.28 1310.51 1872.4 1300.56 1951.69 1300.56"/><polygon class="cls-6" points="1946.21 1310.51 1950.57 1310.51 1951.69 1300.56 1947.33 1300.56 1946.21 1310.51"/><polygon class="cls-6" points="1871.28 1310.51 1875.63 1310.51 1876.75 1300.56 1872.4 1300.56 1871.28 1310.51"/><polygon class="cls-5" points="1957.41 1249.69 1956.29 1259.65 1877 1259.65 1878.12 1249.69 1957.41 1249.69"/><polygon class="cls-6" points="1951.94 1259.65 1956.29 1259.65 1957.41 1249.69 1953.06 1249.69 1951.94 1259.65"/><polygon class="cls-6" points="1877 1259.65 1881.36 1259.65 1882.47 1249.69 1878.12 1249.69 1877 1259.65"/><polygon class="cls-5" points="1963.13 1198.84 1962.02 1208.79 1882.72 1208.79 1883.84 1198.84 1963.13 1198.84"/><polygon class="cls-6" points="1957.66 1208.79 1962.02 1208.79 1963.13 1198.84 1958.78 1198.84 1957.66 1208.79"/><polygon class="cls-6" points="1882.72 1208.79 1887.08 1208.79 1888.2 1198.84 1883.84 1198.84 1882.72 1208.79"/><polygon class="cls-5" points="1968.86 1147.97 1967.74 1157.93 1888.44 1157.93 1889.56 1147.97 1968.86 1147.97"/><polygon class="cls-6" points="1963.38 1157.93 1967.74 1157.93 1968.86 1147.97 1964.5 1147.97 1963.38 1157.93"/><polygon class="cls-6" points="1888.44 1157.93 1892.8 1157.93 1893.92 1147.97 1889.56 1147.97 1888.44 1157.93"/><polygon class="cls-5" points="1974.58 1097.12 1973.46 1107.07 1894.17 1107.07 1895.29 1097.12 1974.58 1097.12"/><polygon class="cls-6" points="1969.11 1107.07 1973.46 1107.07 1974.58 1097.12 1970.22 1097.12 1969.11 1107.07"/><polygon class="cls-6" points="1894.17 1107.07 1898.52 1107.07 1899.64 1097.12 1895.29 1097.12 1894.17 1107.07"/><polygon class="cls-5" points="1980.3 1046.26 1979.18 1056.21 1899.89 1056.21 1901.01 1046.26 1980.3 1046.26"/><polygon class="cls-6" points="1974.83 1056.21 1979.18 1056.21 1980.3 1046.26 1975.95 1046.26 1974.83 1056.21"/><polygon class="cls-6" points="1899.89 1056.21 1904.25 1056.21 1905.37 1046.26 1901.01 1046.26 1899.89 1056.21"/><polygon class="cls-5" points="1986.03 995.39 1984.91 1005.35 1905.61 1005.35 1906.73 995.39 1986.03 995.39"/><polygon class="cls-6" points="1905.61 1005.35 1909.97 1005.35 1911.09 995.39 1906.73 995.39 1905.61 1005.35"/><polygon class="cls-6" points="1980.55 1005.35 1984.91 1005.35 1986.03 995.39 1981.67 995.39 1980.55 1005.35"/><polygon class="cls-7" points="1956.09 1382.93 1909.6 969.74 1898.91 969.74 1945.4 1382.93 1956.09 1382.93"/><polygon class="cls-7" points="2046.08 1382.93 1999.59 969.74 1988.89 969.74 2035.38 1382.93 2046.08 1382.93"/><polygon class="cls-8" points="1952.55 1351.41 1953.66 1361.37 2032.96 1361.37 2031.84 1351.41 1952.55 1351.41"/><polygon class="cls-9" points="1958.02 1361.37 1953.66 1361.37 1952.55 1351.41 1956.9 1351.41 1958.02 1361.37"/><polygon class="cls-9" points="2032.96 1361.37 2028.6 1361.37 2027.48 1351.41 2031.84 1351.41 2032.96 1361.37"/><polygon class="cls-8" points="1946.82 1300.56 1947.94 1310.51 2027.24 1310.51 2026.12 1300.56 1946.82 1300.56"/><polygon class="cls-9" points="1952.3 1310.51 1947.94 1310.51 1946.82 1300.56 1951.18 1300.56 1952.3 1310.51"/><polygon class="cls-9" points="2027.24 1310.51 2022.88 1310.51 2021.76 1300.56 2026.12 1300.56 2027.24 1310.51"/><polygon class="cls-8" points="1941.1 1249.69 1942.22 1259.65 2021.51 1259.65 2020.39 1249.69 1941.1 1249.69"/><polygon class="cls-9" points="1946.58 1259.65 1942.22 1259.65 1941.1 1249.69 1945.46 1249.69 1946.58 1259.65"/><polygon class="cls-9" points="2021.51 1259.65 2017.16 1259.65 2016.04 1249.69 2020.39 1249.69 2021.51 1259.65"/><polygon class="cls-8" points="1935.38 1198.84 1936.5 1208.79 2015.79 1208.79 2014.67 1198.84 1935.38 1198.84"/><polygon class="cls-9" points="1940.85 1208.79 1936.5 1208.79 1935.38 1198.84 1939.73 1198.84 1940.85 1208.79"/><polygon class="cls-9" points="2015.79 1208.79 2011.43 1208.79 2010.31 1198.84 2014.67 1198.84 2015.79 1208.79"/><polygon class="cls-8" points="1929.65 1147.97 1930.77 1157.93 2010.07 1157.93 2008.95 1147.97 1929.65 1147.97"/><polygon class="cls-9" points="1935.13 1157.93 1930.77 1157.93 1929.65 1147.97 1934.01 1147.97 1935.13 1157.93"/><polygon class="cls-9" points="2010.07 1157.93 2005.71 1157.93 2004.59 1147.97 2008.95 1147.97 2010.07 1157.93"/><polygon class="cls-8" points="1923.93 1097.12 1925.05 1107.07 2004.35 1107.07 2003.22 1097.12 1923.93 1097.12"/><polygon class="cls-9" points="1929.41 1107.07 1925.05 1107.07 1923.93 1097.12 1928.29 1097.12 1929.41 1107.07"/><polygon class="cls-9" points="2004.35 1107.07 1999.99 1107.07 1998.87 1097.12 2003.22 1097.12 2004.35 1107.07"/><polygon class="cls-8" points="1918.21 1046.26 1919.33 1056.21 1998.62 1056.21 1997.5 1046.26 1918.21 1046.26"/><polygon class="cls-9" points="1923.68 1056.21 1919.33 1056.21 1918.21 1046.26 1922.57 1046.26 1923.68 1056.21"/><polygon class="cls-9" points="1998.62 1056.21 1994.27 1056.21 1993.15 1046.26 1997.5 1046.26 1998.62 1056.21"/><polygon class="cls-8" points="1912.49 995.39 1913.61 1005.35 1992.9 1005.35 1991.78 995.39 1912.49 995.39"/><polygon class="cls-9" points="1917.96 1005.35 1913.61 1005.35 1912.49 995.39 1916.84 995.39 1917.96 1005.35"/><polygon class="cls-9" points="1992.9 1005.35 1988.54 1005.35 1987.42 995.39 1991.78 995.39 1992.9 1005.35"/><rect class="cls-6" x="1884.59" y="964.06" width="129.33" height="5.68"/><rect class="cls-5" x="1884.59" y="951.01" width="129.33" height="13.05"/><path class="cls-10" d="M1696.88,1310.08l-24.6,61h61.09l-24.6-61A6.41,6.41,0,0,0,1696.88,1310.08Z"/><rect class="cls-11" x="1665.63" y="1371.13" width="74.4" height="12.02" rx="6.01" ry="6.01"/><path class="cls-12" d="M1671,1383.15h63.74c2.94,0,5.33-2.69,5.33-6h-74.4C1665.63,1380.46,1668,1383.15,1671,1383.15Z"/><polygon class="cls-13" points="1672.28 1371.13 1733.38 1371.13 1731.81 1367.25 1673.85 1367.25 1672.28 1371.13"/><polygon class="cls-13" points="1686.74 1335.26 1718.92 1335.26 1717.36 1331.37 1688.3 1331.37 1686.74 1335.26"/><polygon class="cls-13" points="1689.83 1327.58 1715.83 1327.58 1714.26 1323.7 1691.39 1323.7 1689.83 1327.58"/><path class="cls-14" d="M998.58,998.21l73.11-40.39L1030.78,859l-80.26,23.11A270.4,270.4,0,0,0,889.33,821l23.14-80.28-98.79-40.93-40.42,73.12a270.4,270.4,0,0,0-86.52,0l-40.39-73.11-98.8,40.91,23.11,80.26a270.4,270.4,0,0,0-61.17,61.19l-80.28-23.14-40.93,98.79,73.12,40.42a270.39,270.39,0,0,0,0,86.52l-73.11,40.39,40.91,98.8,80.26-23.11a270.39,270.39,0,0,0,61.19,61.17l-23.14,80.28,98.79,40.93L686.69,1310a270.39,270.39,0,0,0,86.52,0l40.39,73.11,98.8-40.91L889.29,1262a270.39,270.39,0,0,0,61.17-61.19l80.28,23.14,40.93-98.79-73.12-40.42A270.4,270.4,0,0,0,998.58,998.21Zm-227.71,142a106.88,106.88,0,1,1,57.86-139.64A106.88,106.88,0,0,1,770.87,1140.19Z"/><path class="cls-15" d="M730,840.43c-111,0-201,90-201,201s90,201,201,201,201-90,201-201S841,840.43,730,840.43Zm40.89,299.76a106.88,106.88,0,1,1,57.86-139.64A106.88,106.88,0,0,1,770.87,1140.19Z"/><circle class="cls-16" cx="694.86" cy="1245.13" r="138.01" transform="translate(-723.94 1103.11) rotate(-55.12)"/><rect class="cls-17" x="671.75" y="1158.49" width="46.21" height="173.28" transform="translate(-723.94 1103.11) rotate(-55.12)"/><path class="cls-14" d="M2015.94,982.24l36.25-20-20.29-49-39.8,11.46a134.08,134.08,0,0,0-30.34-30.33l11.48-39.81-49-20.3-20,36.26a134.08,134.08,0,0,0-42.9,0l-20-36.25-49,20.29,11.46,39.8a134.08,134.08,0,0,0-30.33,30.34l-39.81-11.48-20.3,49,36.26,20a134.08,134.08,0,0,0,0,42.9l-36.25,20,20.29,49,39.8-11.46a134.08,134.08,0,0,0,30.34,30.33l-11.48,39.81,49,20.3,20-36.26a134.08,134.08,0,0,0,42.9,0l20,36.25,49-20.29-11.46-39.8a134.08,134.08,0,0,0,30.33-30.34l39.81,11.48,20.3-49-36.26-20A134.08,134.08,0,0,0,2015.94,982.24ZM1903,1052.64a53,53,0,1,1,28.69-69.24A53,53,0,0,1,1903,1052.64Z"/><path class="cls-15" d="M1882.75,904a99.67,99.67,0,1,0,99.67,99.67A99.67,99.67,0,0,0,1882.75,904ZM1903,1052.64a53,53,0,1,1,28.69-69.24A53,53,0,0,1,1903,1052.64Z"/><path class="cls-18" d="M618.61,1265.36H492.22v101.71a16.08,16.08,0,0,0,16.08,16.08h94.23a16.08,16.08,0,0,0,16.08-16.08Z"/><rect class="cls-19" x="485.7" y="1242.16" width="139.43" height="23.21" rx="10.25" ry="10.25"/><path class="cls-20" d="M555.42,1337c-19.05,0-36.87-5.72-50.17-16.12-15.27-11.93-23.34-28.92-23.34-49.13a5.14,5.14,0,1,1,10.29,0c0,37.76,32.77,55,63.23,55s63.23-17.2,63.23-55a5.14,5.14,0,1,1,10.29,0c0,20.21-8.07,37.2-23.34,49.13C592.29,1331.27,574.47,1337,555.42,1337Z"/><path class="cls-18" d="M890.26,1265.36H763.88v101.71A16.08,16.08,0,0,0,780,1383.15h94.23a16.08,16.08,0,0,0,16.08-16.08Z"/><rect class="cls-19" x="757.36" y="1242.16" width="139.43" height="23.21" rx="10.25" ry="10.25"/><path class="cls-20" d="M827.07,1337c-19.05,0-36.87-5.72-50.17-16.12-15.27-11.93-23.34-28.92-23.34-49.13a5.14,5.14,0,1,1,10.29,0c0,37.76,32.77,55,63.23,55s63.23-17.2,63.23-55a5.14,5.14,0,1,1,10.29,0c0,20.21-8.07,37.2-23.34,49.13C863.94,1331.27,846.13,1337,827.07,1337Z"/><path class="cls-18" d="M890.26,1124.37H763.88v101.71A16.08,16.08,0,0,0,780,1242.16h94.23a16.08,16.08,0,0,0,16.08-16.08Z"/><rect class="cls-19" x="757.36" y="1101.16" width="139.43" height="23.21" rx="10.25" ry="10.25"/><path class="cls-20" d="M827.07,1196c-19.05,0-36.87-5.72-50.17-16.12-15.27-11.93-23.34-28.92-23.34-49.13a5.14,5.14,0,1,1,10.29,0c0,37.76,32.77,55,63.23,55s63.23-17.2,63.23-55a5.14,5.14,0,1,1,10.29,0c0,20.21-8.07,37.2-23.34,49.13C863.94,1190.27,846.13,1196,827.07,1196Z"/><g id="_Group_" data-name="&lt;Group&gt;"><g id="_Group_2" data-name="&lt;Group&gt;"><path id="_Path_" data-name="&lt;Path&gt;" class="cls-21" d="M1694.29,1138.88H1732v145.24h-53.12a11.81,11.81,0,0,1-11.72-13.3l15.46-121.61A11.81,11.81,0,0,1,1694.29,1138.88Z"/><rect id="_Path_2" data-name="&lt;Path&gt;" class="cls-22" x="1718.66" y="1138.88" width="13.3" height="145.24"/><path id="_Path_3" data-name="&lt;Path&gt;" class="cls-21" d="M1892.09,1254.08h166V1084.79a7.65,7.65,0,0,0-7.65-7.65H1899.74a7.65,7.65,0,0,0-7.65,7.65Z"/><path id="_Path_4" data-name="&lt;Path&gt;" class="cls-21" d="M1733.7,1093h158.38v161.06h-166V1100.67A7.65,7.65,0,0,1,1733.7,1093Z"/><rect id="_Path_5" data-name="&lt;Path&gt;" class="cls-22" x="1884.52" y="1093.02" width="7.56" height="161.06"/><rect id="_Path_6" data-name="&lt;Path&gt;" class="cls-23" x="1731.95" y="1254.08" width="326.16" height="30.04"/><path id="_Path_7" data-name="&lt;Path&gt;" class="cls-24" d="M2195.65,1337.81a7.59,7.59,0,0,1-7.54-6.47,50.47,50.47,0,0,0-99.93,0,7.59,7.59,0,0,1-7.54,6.47h-4.07a10.79,10.79,0,0,1-10.79-10.79v-72.94h-7.67v16.54a13.5,13.5,0,0,1-13.5,13.5H1742.12v59.31a7.11,7.11,0,0,0,6.23,7.17,6.91,6.91,0,0,0,7.58-6.87v-39.67a1.84,1.84,0,0,1,1.84-1.84h0a1.84,1.84,0,0,1,1.81,1.5l7.28,39.06a9.61,9.61,0,0,0,9.44,7.85h151.17a9.61,9.61,0,0,0,6.79-2.81l5-5a9.61,9.61,0,0,1,6.79-2.81h92.62a9.61,9.61,0,0,1,6.79,2.81l7.56,7.55a9.61,9.61,0,0,0,6.79,2.81h157.06a9.61,9.61,0,0,0,9.61-9.61v-5.73Z"/><circle id="_Path_8" data-name="&lt;Path&gt;" class="cls-25" cx="2138.14" cy="1338.43" r="44.72"/><path id="_Path_9" data-name="&lt;Path&gt;" class="cls-26" d="M2248.76,1267.26l-50.27-166.57a10.79,10.79,0,0,0-10.33-7.67h-107a15.34,15.34,0,0,0-15.34,15.34V1327a10.79,10.79,0,0,0,10.79,10.79h4.07a7.59,7.59,0,0,0,7.54-6.47,50.47,50.47,0,0,1,99.93,0,7.59,7.59,0,0,0,7.54,6.47h38.88a10.79,10.79,0,0,0,7.63-3.16l3.91-3.91a10.79,10.79,0,0,0,3.16-7.63v-52.74A10.78,10.78,0,0,0,2248.76,1267.26Z"/><path id="_Path_10" data-name="&lt;Path&gt;" class="cls-27" d="M2066.92,1102.57a15.34,15.34,0,0,1,14.21-9.55h107a10.78,10.78,0,0,1,10.33,7.67l50.27,166.57a10.78,10.78,0,0,1,.46,3.12v51.41C2127.5,1301.71,2083,1179.15,2066.92,1102.57Z"/><g id="_Group_3" data-name="&lt;Group&gt;"><path id="_Compound_Path_" data-name="&lt;Compound Path&gt;" class="cls-24" d="M2138.14,1371.14a32.71,32.71,0,1,1,32.71-32.71A32.75,32.75,0,0,1,2138.14,1371.14Zm0-63.09a30.38,30.38,0,1,0,30.38,30.38A30.42,30.42,0,0,0,2138.14,1308Z"/></g><circle id="_Path_11" data-name="&lt;Path&gt;" class="cls-28" cx="2138.14" cy="1338.43" r="20.75"/><path id="_Path_12" data-name="&lt;Path&gt;" class="cls-29" d="M2150.37,1338.46c-3.39,1-21.05,1-24.45,0-3.9-.74-.83-13.58,12.22-13.85C2151.2,1324.89,2154.26,1337.73,2150.37,1338.46Z"/><g id="_Group_4" data-name="&lt;Group&gt;"><circle id="_Path_13" data-name="&lt;Path&gt;" class="cls-25" cx="1851.81" cy="1338.43" r="44.72"/><g id="_Group_5" data-name="&lt;Group&gt;"><path id="_Compound_Path_2" data-name="&lt;Compound Path&gt;" class="cls-24" d="M1851.81,1371.14a32.71,32.71,0,1,1,32.71-32.71A32.75,32.75,0,0,1,1851.81,1371.14Zm0-63.09a30.38,30.38,0,1,0,30.38,30.38A30.42,30.42,0,0,0,1851.81,1308Z"/></g><circle id="_Path_14" data-name="&lt;Path&gt;" class="cls-28" cx="1851.81" cy="1338.43" r="20.75"/><path id="_Path_15" data-name="&lt;Path&gt;" class="cls-29" d="M1864,1338.46c-3.39,1-21.05,1-24.45,0-3.9-.74-.83-13.58,12.22-13.85C1864.86,1324.89,1867.93,1337.73,1864,1338.46Z"/></g><rect id="_Path_16" data-name="&lt;Path&gt;" class="cls-25" x="2210.87" y="1300.42" width="43.14" height="25.73" rx="2.88" ry="2.88"/><path id="_Path_17" data-name="&lt;Path&gt;" class="cls-30" d="M2231.48,1295.78h19.73a2.8,2.8,0,0,0,2.8-2.8v-19.49a2.8,2.8,0,0,0-2.8-2.8h-19.73Z"/><path id="_Path_18" data-name="&lt;Path&gt;" class="cls-31" d="M2149.22,1191.72l9.67,23.7a5.35,5.35,0,0,0,4.4,3.43l50.17,5.74a5.35,5.35,0,0,0,5.73-6.86l-32.12-108.41a4,4,0,0,0-3.86-2.87h-98a6,6,0,0,0-6,6v70.5a5.35,5.35,0,0,0,5.35,5.35h59.65A5.35,5.35,0,0,1,2149.22,1191.72Z"/><path id="_Path_19" data-name="&lt;Path&gt;" class="cls-25" d="M2237,1215h-4.07c-2.71,0-4.91-1.74-4.91-3.88v-29c0-2.14,2.2-3.88,4.91-3.88H2237c2.71,0,4.91,1.74,4.91,3.88v29C2241.89,1213.3,2239.69,1215,2237,1215Z"/><path id="_Path_20" data-name="&lt;Path&gt;" class="cls-32" d="M2187.07,1109.31a4,4,0,0,0-3.86-2.87h-98a6,6,0,0,0-6,6v10.83h112Z"/><path id="_Path_21" data-name="&lt;Path&gt;" class="cls-24" d="M2233,1215v6.23a2.09,2.09,0,0,1-1,1.82l-8.15,4a1.92,1.92,0,0,0-1,2.27h0a1.92,1.92,0,0,0,2.69,1.16l8.21-4.08a5.94,5.94,0,0,0,3.11-5.22V1215Z"/><path id="_Path_22" data-name="&lt;Path&gt;" class="cls-33" d="M2104.24,1211.84h-21.39a3.65,3.65,0,0,1-3.65-3.65h0a3.65,3.65,0,0,1,3.65-3.65h21.39a3.65,3.65,0,0,1,3.65,3.65h0A3.65,3.65,0,0,1,2104.24,1211.84Z"/><path id="_Path_23" data-name="&lt;Path&gt;" class="cls-34" d="M2058.12,1254.08v16.54a13.48,13.48,0,0,1-.61,4,13.33,13.33,0,0,1-.75,1.85q-.25.51-.53,1a13.54,13.54,0,0,1-2.07,2.69l0,0a13.6,13.6,0,0,1-1.8,1.5l-.42.28a13.43,13.43,0,0,1-2,1.06l-.38.14a13.44,13.44,0,0,1-4.92.94H1736v7h329.79v-37Z"/><path id="_Path_24" data-name="&lt;Path&gt;" class="cls-35" d="M2084.56,1188.25h23.84l-13.09-43.51a8.22,8.22,0,0,0-16.1,2.37v35.79A5.35,5.35,0,0,0,2084.56,1188.25Z"/><path id="_Path_25" data-name="&lt;Path&gt;" class="cls-35" d="M2219.19,1217.72l-3-10h-7.1a3.9,3.9,0,0,0-3.68,2.62l-3.53,10.17-3.3-1,10-29.45a7,7,0,0,0-13.16-4.48l-12.12,35.61,14.13,1.62h0l16,1.83A5.35,5.35,0,0,0,2219.19,1217.72Z"/><rect id="_Path_26" data-name="&lt;Path&gt;" class="cls-36" x="1731.95" y="1254.08" width="326.16" height="6.32"/><path id="_Path_27" data-name="&lt;Path&gt;" class="cls-30" d="M1752.9,1266.85H1751a2.6,2.6,0,0,1-2.6-2.6v-10.16h7.16v10.16A2.6,2.6,0,0,1,1752.9,1266.85Z"/><path id="_Path_28" data-name="&lt;Path&gt;" class="cls-30" d="M1810.74,1266.85h-1.95a2.6,2.6,0,0,1-2.6-2.6v-10.16h7.16v10.16A2.6,2.6,0,0,1,1810.74,1266.85Z"/><path id="_Path_29" data-name="&lt;Path&gt;" class="cls-30" d="M1868.59,1266.85h-1.95a2.6,2.6,0,0,1-2.6-2.6v-10.16h7.16v10.16A2.6,2.6,0,0,1,1868.59,1266.85Z"/><path id="_Path_30" data-name="&lt;Path&gt;" class="cls-30" d="M1926.43,1266.85h-1.95a2.6,2.6,0,0,1-2.6-2.6v-10.16H1929v10.16A2.6,2.6,0,0,1,1926.43,1266.85Z"/><path id="_Path_31" data-name="&lt;Path&gt;" class="cls-30" d="M1984.27,1266.85h-1.95a2.6,2.6,0,0,1-2.6-2.6v-10.16h7.16v10.16A2.6,2.6,0,0,1,1984.27,1266.85Z"/><path id="_Path_32" data-name="&lt;Path&gt;" class="cls-30" d="M2042.11,1266.85h-1.95a2.6,2.6,0,0,1-2.6-2.6v-10.16h7.16v10.16A2.6,2.6,0,0,1,2042.11,1266.85Z"/><path id="_Path_33" data-name="&lt;Path&gt;" class="cls-21" d="M2219.51,1270.7a2.8,2.8,0,0,0-2.8,2.8V1293a2.8,2.8,0,0,0,2.8,2.8H2228V1270.7Z"/></g></g><g id="_Group_6" data-name="&lt;Group&gt;"><rect id="_Path_34" data-name="&lt;Path&gt;" class="cls-37" x="865.33" y="589.59" width="1017.42" height="698.85" rx="32.94" ry="32.94"/><path id="_Path_35" data-name="&lt;Path&gt;" class="cls-38" d="M1849.81,586.52H898.26a32.94,32.94,0,0,0-32.94,32.94v572.34H1882.75V619.45A32.94,32.94,0,0,0,1849.81,586.52Z"/><rect id="_Path_36" data-name="&lt;Path&gt;" class="cls-39" x="891.02" y="612.21" width="966.04" height="553.89" rx="17.54" ry="17.54"/><rect id="_Path_37" data-name="&lt;Path&gt;" class="cls-40" x="1156.97" y="1288.46" width="434.14" height="63.13"/><path id="_Path_38" data-name="&lt;Path&gt;" class="cls-41" d="M1591.11,1298.06c0,37-434.14,37-434.14,0v-9.6h434.14Z"/><path id="_Path_39" data-name="&lt;Path&gt;" class="cls-37" d="M1752.22,1383.15H995.85c-10.11,0-18.3-7.07-18.3-15.78h0c0-8.72,8.19-15.78,18.3-15.78h756.38c10.11,0,18.3,7.07,18.3,15.78h0C1770.52,1376.09,1762.33,1383.15,1752.22,1383.15Z"/><circle class="cls-42" cx="1374.04" cy="1241.13" r="23.33"/></g><rect class="cls-43" x="1471.03" y="1117.64" width="28.63" height="265.51"/><rect class="cls-43" x="1812.1" y="1117.64" width="28.63" height="265.51"/><rect class="cls-44" x="1812.1" y="1117.64" width="14.31" height="265.51"/><rect class="cls-44" x="1471.03" y="1117.64" width="14.31" height="265.51"/><rect class="cls-45" x="1499.66" y="1123.57" width="312.44" height="121.86"/><polygon class="cls-46" points="1769.78 1245.43 1812.1 1245.43 1812.1 1144.38 1769.78 1245.43"/><polygon class="cls-46" points="1718.74 1245.43 1655.88 1245.43 1706.91 1123.57 1769.78 1123.57 1718.74 1245.43"/><polygon class="cls-46" points="1604.84 1245.43 1541.98 1245.43 1593.02 1123.57 1655.88 1123.57 1604.84 1245.43"/><polygon class="cls-46" points="1541.98 1123.57 1499.66 1123.57 1499.66 1224.63 1541.98 1123.57"/><path class="cls-47" d="M1025.07,1383.15h0a9.56,9.56,0,0,0,9.56-9.56V579.89a9.56,9.56,0,0,0-9.56-9.56h0a9.56,9.56,0,0,0-9.56,9.56v793.7A9.56,9.56,0,0,0,1025.07,1383.15Z"/><path class="cls-47" d="M1126.75,1383.15h0a9.56,9.56,0,0,0,9.56-9.56V579.89a9.56,9.56,0,0,0-9.56-9.56h0a9.56,9.56,0,0,0-9.56,9.56v793.7A9.56,9.56,0,0,0,1126.75,1383.15Z"/><rect class="cls-48" x="1034.63" y="1313.06" width="82.57" height="19.11"/><rect class="cls-49" x="1034.63" y="1313.06" width="7.79" height="19.11"/><rect class="cls-49" x="1109.41" y="1313.06" width="7.79" height="19.11"/><rect class="cls-48" x="1034.63" y="1215.36" width="82.57" height="19.11"/><rect class="cls-49" x="1034.63" y="1215.36" width="7.79" height="19.11"/><rect class="cls-49" x="1109.41" y="1215.36" width="7.79" height="19.11"/><rect class="cls-48" x="1034.63" y="1117.66" width="82.57" height="19.11"/><rect class="cls-49" x="1034.63" y="1117.66" width="7.79" height="19.11"/><rect class="cls-49" x="1109.41" y="1117.66" width="7.79" height="19.11"/><rect class="cls-48" x="1034.63" y="1019.96" width="82.57" height="19.11"/><rect class="cls-49" x="1034.63" y="1019.96" width="7.79" height="19.11"/><rect class="cls-49" x="1109.41" y="1019.96" width="7.79" height="19.11"/><rect class="cls-48" x="1034.63" y="922.27" width="82.57" height="19.11"/><rect class="cls-49" x="1034.63" y="922.27" width="7.79" height="19.11"/><rect class="cls-49" x="1109.41" y="922.27" width="7.79" height="19.11"/><rect class="cls-48" x="1034.63" y="824.57" width="82.57" height="19.11"/><rect class="cls-49" x="1034.63" y="824.57" width="7.79" height="19.11"/><rect class="cls-49" x="1109.41" y="824.57" width="7.79" height="19.11"/><rect class="cls-48" x="1034.63" y="726.87" width="82.57" height="19.11"/><rect class="cls-49" x="1034.63" y="726.87" width="7.79" height="19.11"/><rect class="cls-49" x="1109.41" y="726.87" width="7.79" height="19.11"/><rect class="cls-48" x="1034.63" y="629.17" width="82.57" height="19.11"/><rect class="cls-49" x="1034.63" y="629.17" width="7.79" height="19.11"/><rect class="cls-49" x="1109.41" y="629.17" width="7.79" height="19.11"/><polygon class="cls-25" points="448.89 408.36 446.72 405 728.37 222.69 729.22 222.92 1400.99 402.58 1399.95 406.45 729.05 227.01 448.89 408.36"/><polygon class="cls-25" points="448.55 408.36 446.37 405 728.02 222.69 728.88 222.92 1400.64 402.58 1399.61 406.45 728.7 227.01 448.55 408.36"/><polygon class="cls-25" points="539.47 408.36 537.3 405 728.02 222.69 728.88 222.92 1305.47 402.58 1304.44 406.45 728.7 227.01 539.47 408.36"/><path class="cls-25" d="M1403,403.48l-1.46-1.46H834v52h619.54ZM856.43,428,839,445.48V410.55ZM842.5,407h34.93L860,424.48ZM860,431.55,877.43,449H842.5ZM863.5,428,881,410.55v34.93ZM886,410.55,903.43,428,886,445.48ZM889.5,407h34.93L907,424.48ZM907,431.55,924.43,449H889.5ZM910.5,428,928,410.55v34.93ZM933,410.55,950.43,428,933,445.48ZM936.5,407h34.93L954,424.48ZM954,431.55,971.43,449H936.5ZM957.5,428,975,410.55v34.93ZM980,410.55,997.43,428,980,445.48ZM983.5,407h34.93L1001,424.48ZM1001,431.55,1018.43,449H983.5Zm3.54-3.54L1022,410.55v34.93ZM1027,410.55,1044.43,428,1027,445.48Zm3.54-3.54h34.93L1048,424.48ZM1048,431.55,1065.43,449H1030.5Zm3.54-3.54L1069,410.55v34.93ZM1074,410.55,1091.43,428,1074,445.48Zm3.54-3.54h34.93L1095,424.48ZM1095,431.55,1112.43,449H1077.5Zm3.54-3.54L1116,410.55v34.93ZM1121,410.55,1138.43,428,1121,445.48Zm3.54-3.54h34.93L1142,424.48ZM1142,431.55,1159.43,449H1124.5Zm3.54-3.54L1163,410.55v34.93ZM1168,410.55,1185.43,428,1168,445.48Zm3.54-3.54h34.93L1189,424.48ZM1189,431.55,1206.43,449H1171.5Zm3.54-3.54L1210,410.55v34.93ZM1215,410.55,1232.43,428,1215,445.48Zm3.54-3.54h34.93L1236,424.48ZM1236,431.55,1253.43,449H1218.5Zm3.54-3.54L1257,410.55v34.93ZM1262,410.55,1279.43,428,1262,445.48Zm3.54-3.54h34.93L1283,424.48ZM1283,431.55,1300.43,449H1265.5Zm3.54-3.54L1304,410.55v34.93ZM1309,410.55,1326.43,428,1309,445.48Zm3.54-3.54h34.93L1330,424.48ZM1330,431.55,1347.43,449H1312.5Zm3.54-3.54L1351,410.55v34.93ZM1356,410.55,1373.43,428,1356,445.48Zm3.54-3.54h34.93L1377,424.48ZM1377,431.55,1394.43,449H1359.5Zm3.54-3.54L1398,410.55v34.93ZM1403,410.55,1441.43,449H1403Z"/><path class="cls-25" d="M674.47,563v757h52V516h-52Zm8.54,0,17.46-17.46L717.93,563Zm34.93,5-17.46,17.46L683,568Zm-21,21-17.46,17.46V571.55ZM683,610l17.46-17.46L717.93,610Zm34.93,5-17.46,17.46L683,615Zm-21,21-17.46,17.46V618.55ZM683,657l17.46-17.46L717.93,657Zm34.93,5-17.46,17.46L683,662Zm-21,21-17.46,17.46V665.55ZM683,704l17.46-17.46L717.93,704Zm34.93,5-17.46,17.46L683,709Zm-21,21-17.46,17.46V712.55ZM683,751l17.46-17.46L717.93,751Zm34.93,5-17.46,17.46L683,756Zm-21,21-17.46,17.46V759.55ZM683,798l17.46-17.46L717.93,798Zm34.93,5-17.46,17.46L683,803Zm-21,21-17.46,17.46V806.55ZM683,845l17.46-17.46L717.93,845Zm34.93,5-17.46,17.46L683,850Zm-21,21-17.46,17.46V853.55ZM683,892l17.46-17.46L717.93,892Zm34.93,5-17.46,17.46L683,897Zm-21,21-17.46,17.46V900.55ZM683,939l17.46-17.46L717.93,939Zm34.93,5-17.46,17.46L683,944Zm-21,21-17.46,17.46V947.55ZM683,986l17.46-17.46L717.93,986Zm34.93,5-17.46,17.46L683,991Zm-21,21-17.46,17.46V994.55ZM683,1033l17.46-17.46L717.93,1033Zm34.93,5-17.46,17.46L683,1038Zm-21,21-17.46,17.46v-34.93ZM683,1080l17.46-17.46L717.93,1080Zm34.93,5-17.46,17.46L683,1085Zm-21,21-17.46,17.46v-34.93ZM683,1127l17.46-17.46L717.93,1127Zm34.93,5-17.46,17.46L683,1132Zm-21,21-17.46,17.46v-34.93ZM683,1174l17.46-17.46L717.93,1174Zm34.93,5-17.46,17.46L683,1179Zm-21,21-17.46,17.46v-34.93ZM683,1221l17.46-17.46L717.93,1221Zm34.93,5-17.46,17.46L683,1226Zm-21,21-17.46,17.46v-34.93ZM683,1268l17.46-17.46L717.93,1268Zm34.93,5-17.46,17.46L683,1273Zm-21,21-17.46,17.46v-34.93Zm3.54,3.54L717.93,1315H683ZM704,1294l17.46-17.46v34.93Zm0-47,17.46-17.46v34.93Zm0-47,17.46-17.46v34.93Zm0-47,17.46-17.46v34.93Zm0-47,17.46-17.46v34.93Zm0-47,17.46-17.46v34.93Zm0-47,17.46-17.46v34.93Zm0-47,17.46-17.46v34.93Zm0-47,17.46-17.46v34.93Zm0-47,17.46-17.46v34.93Zm0-47,17.46-17.46v34.93Zm0-47,17.46-17.46v34.93Zm0-47,17.46-17.46v34.93Zm0-47,17.46-17.46v34.93Zm0-47,17.46-17.46v34.93Zm0-47,17.46-17.46v34.93Zm0-47,17.46-17.46v34.93Zm-3.54-3.54L683,521h34.93ZM696.93,542l-17.46,17.46V524.55Z"/><path class="cls-25" d="M584,402H443v52H636V402H584ZM465.43,428,448,445.48V410.55ZM451.5,407h34.93L469,424.48ZM469,431.55,486.43,449H451.5ZM472.5,428,490,410.55v34.93ZM495,410.55,512.43,428,495,445.48ZM498.5,407h34.93L516,424.48ZM516,431.55,533.43,449H498.5ZM519.5,428,537,410.55v34.93ZM542,410.55,559.43,428,542,445.48ZM545.5,407h34.93L563,424.48ZM563,431.55,580.43,449H545.5ZM566.5,428,584,410.55v34.93ZM589,410.55,606.43,428,589,445.48Zm21,21L627.43,449H592.5ZM613.5,428,631,410.55v34.93ZM610,424.48,592.5,407h34.93Z"/><path class="cls-50" d="M648,298.52h0a14.5,14.5,0,0,0-14.5,14.5v105.5h29V313A14.5,14.5,0,0,0,648,298.52Z"/><rect class="cls-51" x="700.47" y="451.52" width="136" height="67"/><path class="cls-50" d="M838.89,501.52H722.47v-33H838.89a3.25,3.25,0,0,1,3.25,3.25v26.5A3.25,3.25,0,0,1,838.89,501.52Z"/><rect class="cls-45" x="633.47" y="451.52" width="67" height="67"/><rect class="cls-52" x="622.47" y="418.52" width="225" height="33"/><polygon class="cls-51" points="836.47 418.51 847.47 349.51 785.47 287.51 700.47 287.51 700.47 418.51 836.47 418.51"/><polygon class="cls-50" points="722.47 396.51 722.47 309.51 776.36 309.51 825.47 358.63 817.47 396.51 722.47 396.51"/><polygon class="cls-45" points="647.47 418.51 647.47 325.51 700.47 299.01 700.47 418.51 647.47 418.51"/><path class="cls-53" d="M700.47,287.52h22a21.49,21.49,0,0,0-21.47-21h0a21.5,21.5,0,0,0-21.5,21.5v21.5l21-10.5Z"/><path class="cls-54" d="M693,290.52h-13.5v-3H693a1.5,1.5,0,0,1,1.5,1.5h0A1.5,1.5,0,0,1,693,290.52Z"/><path class="cls-54" d="M693,296.52h-13.5v-3H693a1.5,1.5,0,0,1,1.5,1.5h0A1.5,1.5,0,0,1,693,296.52Z"/><path class="cls-54" d="M693,302.52h-13.5v-3H693a1.5,1.5,0,0,1,1.5,1.5h0A1.5,1.5,0,0,1,693,302.52Z"/><polygon class="cls-54" points="687.47 305.51 679.47 305.51 679.47 308.51 681.47 308.51 687.47 305.51"/><rect class="cls-55" x="468.97" y="451.52" width="70.5" height="13"/><rect class="cls-51" x="477.22" y="464.52" width="54" height="13"/><rect class="cls-55" x="1223.97" y="451.52" width="70.5" height="13"/><rect class="cls-55" x="1223.97" y="795" width="70.5" height="13" rx="6.5" ry="6.5"/><rect class="cls-51" x="1232.22" y="464.52" width="54" height="13"/><rect class="cls-55" x="644.97" y="518.52" width="111" height="13"/><rect class="cls-51" x="657.96" y="531.52" width="85.02" height="13"/><path class="cls-45" d="M728.71,216.85h0a6.26,6.26,0,0,0-6.26,6.26v64.4H735v-64.4A6.26,6.26,0,0,0,728.71,216.85Z"/><rect class="cls-55" x="569.47" y="1351.59" width="262" height="31.56"/><rect class="cls-45" x="585.8" y="1320.03" width="229.33" height="31.56"/><rect class="cls-25" x="1241.07" y="477.52" width="6" height="317.48"/><rect class="cls-25" x="1271.37" y="477.52" width="6" height="317.48"/><rect class="cls-51" x="1231.62" y="808" width="55.2" height="10.7"/><polygon class="cls-52" points="1259.22 818.7 1231.62 818.7 1242.27 837.75 1259.22 837.75 1276.17 837.75 1286.82 818.7 1259.22 818.7"/><path class="cls-51" d="M1274,856.35l-1.31,1.63a14.27,14.27,0,0,0-2.62,5.58,11.29,11.29,0,0,1-11.48,8.54,11.28,11.28,0,0,1-1.83-22.29,7.61,7.61,0,0,0,5.86-7.51v-4.56h-7v4.56a.73.73,0,0,1-.58.71,18.28,18.28,0,0,0,4,36.09h.14a18.11,18.11,0,0,0,12.61-5.06,18.38,18.38,0,0,0,3.33-4.27,12.9,12.9,0,0,0-.63-13.42h0A.27.27,0,0,0,1274,856.35Z"/><path class="cls-10" d="M896.76,1119.72l-88.69,220.09h220.25l-88.69-220.09C931.86,1100.42,904.54,1100.42,896.76,1119.72Z"/><rect class="cls-11" x="784.09" y="1339.82" width="268.21" height="43.33" rx="21.67" ry="21.67"/><path class="cls-12" d="M803.3,1383.15h229.8c10.61,0,19.2-9.7,19.2-21.67H784.09C784.09,1373.45,792.69,1383.15,803.3,1383.15Z"/><polygon class="cls-13" points="808.07 1339.82 1028.32 1339.82 1022.68 1325.82 813.71 1325.82 808.07 1339.82"/><polygon class="cls-13" points="860.19 1210.48 976.21 1210.48 970.57 1196.48 865.83 1196.48 860.19 1210.48"/><polygon class="cls-13" points="871.34 1182.82 965.06 1182.82 959.42 1168.82 876.98 1168.82 871.34 1182.82"/><path class="cls-10" d="M1973.46,1310.08l-24.6,61h61.09l-24.6-61A6.41,6.41,0,0,0,1973.46,1310.08Z"/><rect class="cls-11" x="1942.2" y="1371.13" width="74.4" height="12.02" rx="6.01" ry="6.01"/><path class="cls-12" d="M1947.53,1383.15h63.74c2.94,0,5.33-2.69,5.33-6h-74.4C1942.2,1380.46,1944.59,1383.15,1947.53,1383.15Z"/><polygon class="cls-13" points="1948.86 1371.13 2009.95 1371.13 2008.38 1367.25 1950.42 1367.25 1948.86 1371.13"/><polygon class="cls-13" points="1963.31 1335.26 1995.49 1335.26 1993.93 1331.37 1964.88 1331.37 1963.31 1335.26"/><polygon class="cls-13" points="1966.4 1327.58 1992.4 1327.58 1990.84 1323.7 1967.97 1323.7 1966.4 1327.58"/></svg>